# File created by Blade
# Date/Time:  Wed Apr 08 17:35:25 2015
# Frame Rate: 120.000 fps
#------------------------------------------------------
:FULLY-SPECIFIED
:DEGREES
1554
root 10.120630 37.662222 5.641835 191.500232 -53.818397 -141.035726
Spine -42.777377 7.032252 10.150800
Head 28.595655 -11.050215 10.766356
LeftShoulder -8.562980 23.300479 15.017861
LeftArm 22.621392 29.535391 -74.758841
LeftForeArm 18.886896 -0.000000 27.189985
LeftHand -13.797231 -0.000000 -10.104395
LeftHandThumb1 -26.253704 0.000000 33.147579
RightShoulder -41.678058 -52.904195 21.987560
RightArm 54.938174 -22.836441 48.329489
RightForeArm 8.357971 -0.000000 21.768414
RightHand 0.771704 -0.000000 16.544854
RightHandThumb1 -24.326973 -0.000000 -32.862282
LeftUpLeg -66.072629 27.020506 -15.791529
LeftLeg 20.846919 -0.000000 -0.000000
LeftFoot -15.001534 27.149032 -11.629307
LeftToeBase 7.454248 -0.000000 -0.000000
RightUpLeg -139.345031 3.354195 47.509975
RightLeg 103.992762 -0.000000 -0.000000
RightFoot 10.999625 -12.154892 32.320819
RightToeBase -12.014412 -0.000000 0.000000
1555
root 10.118687 37.679338 5.640703 191.260961 -53.763913 -140.763295
Spine -42.775587 7.140101 10.235689
Head 28.623572 -11.264937 10.846061
LeftShoulder -8.460842 23.191486 15.141477
LeftArm 22.676477 29.677313 -74.877507
LeftForeArm 18.856186 -0.000000 27.281400
LeftHand -13.806591 -0.000000 -10.148552
LeftHandThumb1 -26.253704 0.000000 33.147579
RightShoulder -41.864185 -52.858926 22.137257
RightArm 54.875657 -22.827509 48.479488
RightForeArm 8.066791 -0.000000 21.739115
RightHand 0.841766 -0.000000 15.813308
RightHandThumb1 -24.326973 -0.000000 -32.862282
LeftUpLeg -66.069817 27.136815 -15.698762
LeftLeg 20.759734 -0.000000 -0.000000
LeftFoot -14.813761 27.201936 -11.445756
LeftToeBase 7.333390 -0.000000 -0.000000
RightUpLeg -139.260188 3.114439 47.273595
RightLeg 103.646109 -0.000000 -0.000000
RightFoot 7.924763 -12.668553 30.751631
RightToeBase -12.445412 -0.000000 0.000000
1556
root 10.114236 37.694626 5.636706 190.968835 -53.737147 -140.491707
Spine -42.713984 7.213413 10.327211
Head 28.633709 -11.471706 10.899890
LeftShoulder -8.381402 23.046457 15.280953
LeftArm 22.692306 29.800260 -75.036548
LeftForeArm 18.967291 -0.000000 27.385023
LeftHand -13.739241 -0.000000 -10.200043
LeftHandThumb1 -26.253704 0.000000 33.147579
RightShoulder -41.973513 -52.839860 22.249599
RightArm 54.778612 -22.785510 48.681711
RightForeArm 7.730788 0.000000 21.719252
RightHand 0.938859 -0.000000 15.095638
RightHandThumb1 -24.326973 -0.000000 -32.862282
LeftUpLeg -65.992173 27.236256 -15.553069
LeftLeg 20.676093 -0.000000 -0.000000
LeftFoot -14.613818 27.237061 -11.262498
LeftToeBase 7.187113 -0.000000 -0.000000
RightUpLeg -139.167564 2.889642 47.128096
RightLeg 103.395149 -0.000000 -0.000000
RightFoot 4.545640 -13.888348 28.481622
RightToeBase -12.590805 -0.000000 0.000000
1557
root 10.108111 37.708140 5.634647 190.684033 -53.700884 -140.250224
Spine -42.633791 7.304839 10.401837
Head 28.678753 -11.672109 10.910620
LeftShoulder -8.306688 22.918672 15.392174
LeftArm 22.717558 29.938139 -75.148386
LeftForeArm 19.161425 0.000000 27.552779
LeftHand -13.605645 -0.000000 -10.536114
LeftHandThumb1 -26.253704 0.000000 33.147579
RightShoulder -42.067430 -52.821501 22.327614
RightArm 54.735272 -22.785378 48.801972
RightForeArm 7.383558 -0.000000 21.676960
RightHand 0.994735 -0.000000 14.512609
RightHandThumb1 -24.326973 -0.000000 -32.862282
LeftUpLeg -65.886368 27.333099 -15.406149
LeftLeg 20.596047 -0.000000 -0.000000
LeftFoot -14.489703 27.264274 -11.151719
LeftToeBase 7.179376 -0.000000 -0.000000
RightUpLeg -139.038527 2.706507 47.057519
RightLeg 103.168726 -0.000000 -0.000000
RightFoot 0.752733 -15.589661 27.217058
RightToeBase -12.076079 -0.000000 0.000000
1558
root 10.102770 37.719147 5.625615 190.278143 -53.687942 -139.955104
Spine -42.463758 7.365165 10.500877
Head 28.633679 -11.878045 10.987873
LeftShoulder -8.274092 22.814440 15.503526
LeftArm 22.839301 30.162642 -75.176043
LeftForeArm 19.022323 -0.000000 27.700819
LeftHand -13.706356 -0.000000 -10.233300
LeftHandThumb1 -26.253704 0.000000 33.147579
RightShoulder -42.108419 -52.824148 22.408372
RightArm 54.675801 -22.737413 48.942922
RightForeArm 6.962290 -0.000000 21.643370
RightHand 1.069921 0.000000 14.067467
RightHandThumb1 -24.326973 -0.000000 -32.862282
LeftUpLeg -65.704241 27.441050 -15.168198
LeftLeg 20.551367 -0.000000 -0.000000
LeftFoot -14.434321 27.281647 -11.098573
LeftToeBase 7.225759 -0.000000 -0.000000
RightUpLeg -138.890328 2.315150 46.909818
RightLeg 102.988655 -0.000000 -0.000000
RightFoot -2.646771 -17.154349 26.148188
RightToeBase -11.892486 -0.000000 0.000000
1559
root 10.095557 37.727781 5.617019 189.867928 -53.675252 -139.690219
Spine -42.261122 7.411916 10.585475
Head 28.601432 -12.071794 11.061097
LeftShoulder -8.247844 22.703890 15.593051
LeftArm 22.928340 30.330149 -75.199497
LeftForeArm 19.256460 -0.000000 27.900625
LeftHand -13.505237 -0.000000 -10.615591
LeftHandThumb1 -26.253704 0.000000 33.147579
RightShoulder -42.094421 -52.758801 22.418615
RightArm 54.630468 -22.756255 48.986509
RightForeArm 6.460970 -0.000000 21.581343
RightHand 1.108607 -0.000000 13.931938
RightHandThumb1 -24.326973 -0.000000 -32.862282
LeftUpLeg -65.501563 27.575405 -14.974066
LeftLeg 20.504256 -0.000000 -0.000000
LeftFoot -14.406527 27.259085 -11.026050
LeftToeBase 7.292734 -0.000000 -0.000000
RightUpLeg -138.720223 1.892845 46.751869
RightLeg 102.835219 -0.000000 -0.000000
RightFoot -6.016900 -18.812746 25.231757
RightToeBase -12.141249 -0.000000 0.000000
1560
root 10.086581 37.737118 5.611851 189.537702 -53.641425 -139.484199
Spine -42.089733 7.486774 10.617712
Head 28.572294 -12.285036 11.111144
LeftShoulder -8.234730 22.616615 15.672284
LeftArm 23.034231 30.533587 -75.174879
LeftForeArm 19.323002 -0.000000 28.157942
LeftHand -13.547262 0.000000 -10.683708
LeftHandThumb1 -26.253704 0.000000 33.147579
RightShoulder -42.092775 -52.721666 22.466770
RightArm 54.599345 -22.735348 49.031314
RightForeArm 5.995353 -0.000000 21.517840
RightHand 1.106740 -0.000000 13.990893
RightHandThumb1 -24.326973 -0.000000 -32.862282
LeftUpLeg -65.316246 27.703706 -14.829583
LeftLeg 20.436218 -0.000000 -0.000000
LeftFoot -14.386248 27.264161 -10.988686
LeftToeBase 7.329220 -0.000000 -0.000000
RightUpLeg -138.538485 1.566334 46.642028
RightLeg 102.687587 -0.000000 -0.000000
RightFoot -9.318504 -20.680597 24.021201
RightToeBase -12.419055 -0.000000 0.000000
